<svg width="19" height="19" viewBox="0 0 19 19" fill="none" xmlns="http://www.w3.org/2000/svg">
<path d="M8.84918 15.4921C8.92181 15.5976 9.01899 15.6839 9.13236 15.7434C9.24572 15.803 9.37187 15.8342 9.49993 15.8342C9.628 15.8342 9.75415 15.803 9.86751 15.7434C9.98088 15.6839 10.0781 15.5976 10.1507 15.4921L17.2757 5.20046C17.3582 5.08176 17.4065 4.94272 17.4155 4.79846C17.4245 4.6542 17.3938 4.51023 17.3267 4.38219C17.2597 4.25415 17.1588 4.14695 17.035 4.07222C16.9113 3.9975 16.7695 3.95811 16.6249 3.95834H2.37493C2.23073 3.95893 2.08941 3.99883 1.96618 4.07373C1.84295 4.14864 1.74247 4.25572 1.67555 4.38346C1.60863 4.5112 1.57779 4.65476 1.58636 4.79872C1.59493 4.94267 1.64258 5.08156 1.72418 5.20046L8.84918 15.4921Z" fill="#DFE9F3"/>
</svg>
